<!-- public/images/rocket.svg -->
<svg xmlns="http://www.w3.org/2000/svg" viewBox="0 0 160 320" width="160" height="320">
  <defs>
    <!-- gradiente corpo -->
    <linearGradient id="hullBluePurple" x1="0" y1="0" x2="0" y2="1">
      <stop offset="0" stop-color="#3B82F6"/> <!-- Blue-500 -->
      <stop offset="1" stop-color="#8B5CF6"/> <!-- Purple-500 -->
    </linearGradient>

    <!-- gradiente chama realista -->
    <linearGradient id="flameReal" x1="0" y1="0" x2="0" y2="1">
      <stop offset="0" stop-color="#FFF176"/> <!-- Yellow -->
      <stop offset="0.5" stop-color="#FF9800"/> <!-- Orange -->
      <stop offset="1" stop-color="#D32F2F"/> <!-- Red -->
    </linearGradient>
  </defs>

  <!-- corpo principal -->
  <g>
    <!-- nariz -->
    <path d="M80 8c18 14 28 32 28 44v10H52V52c0-12 10-30 28-44Z" fill="url(#hullBluePurple)"/>
    <!-- fuselagem -->
    <rect x="44" y="62" width="72" height="150" rx="20" fill="url(#hullBluePurple)"/>
    <!-- janela -->
    <circle cx="80" cy="110" r="12" fill="#E0E7FF" stroke="#3730A3" stroke-width="2"/>
    <!-- linhas/painéis -->
    <rect x="78.5" y="88" width="3" height="106" fill="#1E3A8A" opacity=".35"/>
    <rect x="58" y="132" width="44" height="2" fill="#1E3A8A" opacity=".25"/>
    <rect x="58" y="156" width="44" height="2" fill="#1E3A8A" opacity=".25"/>
  </g>

  <!-- barbatanas -->
  <g fill="#4338CA">
    <path d="M44 182c-10 10-16 24-16 38l34-6c-6-8-12-18-18-32Z"/>
    <path d="M116 182c10 10 16 24 16 38l-34-6c6-8 12-18 18-32Z"/>
  </g>

  <!-- base + bocais -->
  <g>
    <rect x="60" y="212" width="40" height="18" rx="9" fill="#312E81"/>
    <ellipse cx="72" cy="235" rx="10" ry="9" fill="#4338CA"/>
    <ellipse cx="88" cy="235" rx="10" ry="9" fill="#4338CA"/>
  </g>

  <!-- chama -->
  <g>
    <path d="M80 246c-8 14-12 30-12 46 0 6 1 12 2 18 6-10 10-16 10-16s4 6 10 16c1-6 2-12 2-18 0-16-4-32-12-46Z" fill="url(#flameReal)"/>
  </g>

  <!-- sombra -->
  <ellipse cx="80" cy="300" rx="26" ry="6" fill="#000" opacity=".08"/>
</svg>