<svg width="32" height="32" viewBox="0 0 32 32" fill="none" xmlns="http://www.w3.org/2000/svg">
  <!-- Rocket body -->
  <path d="M16 2C14.5 2 13.5 3 13.5 4.5V16C13.5 17.5 14.5 18.5 16 18.5C17.5 18.5 18.5 17.5 18.5 16V4.5C18.5 3 17.5 2 16 2Z" fill="#E5E7EB"/>
  
  <!-- Rocket nose -->
  <circle cx="16" cy="4" r="2.5" fill="#3B82F6"/>
  
  <!-- Rocket fins -->
  <path d="M13.5 16L11 20L13.5 18.5V16Z" fill="#6B7280"/>
  <path d="M18.5 16L21 20L18.5 18.5V16Z" fill="#6B7280"/>
  
  <!-- Rocket window -->
  <circle cx="16" cy="8" r="1.5" fill="#1F2937"/>
  
  <!-- Exhaust flame -->
  <path d="M14 18.5L16 30L18 18.5H14Z" fill="#F59E0B"/>
  <path d="M15 20L16 28L17 20H15Z" fill="#EF4444"/>
</svg>
