<!-- public/images/rocket.svg -->
<svg xmlns="http://www.w3.org/2000/svg" width="64" height="64" viewBox="0 0 64 64" fill="none">
  <defs>
    <!-- chama com degradê sutil -->
    <linearGradient id="flame" x1="32" y1="50" x2="32" y2="64" gradientUnits="userSpaceOnUse">
      <stop offset="0" stop-color="#FDBA74"/>
      <stop offset="1" stop-color="#F59E0B"/>
    </linearGradient>
  </defs>

  <!-- corpo do foguete (usa currentColor) -->
  <path fill="currentColor" d="M32 6c8 3.2 14 11 14 19.8 0 8.8-6 16.5-14 19.8-8-3.3-14-11-14-19.8C18 17 24 9.2 32 6Z"/>
  
  <!-- janela -->
  <circle cx="32" cy="24" r="5.2" fill="#ffffff" fill-opacity="0.9"/>
  <circle cx="32" cy="24" r="5.2" stroke="currentColor" stroke-opacity="0.25" stroke-width="1"/>
  
  <!-- aletas -->
  <path fill="currentColor" d="M20.5 37.5c-.1 2.8.6 4.9 2.4 6.8H13.5l8.5-6.8Z"/>
  <path fill="currentColor" d="M43.5 37.5c.1 2.8-.6 4.9-2.4 6.8h9.4l-7-6.8Z"/>

  <!-- chama -->
  <path d="M30.5 44.5 28.5 54h7l-2-9.5h-3Z" fill="url(#flame)"/>

  <!-- brilho sutil -->
  <path d="M24.5 14.5c3.4-3 7.6-4.8 12-5.2" stroke="#ffffff" stroke-opacity="0.25" stroke-width="2" stroke-linecap="round"/>

</svg>